<svg width="120" height="123" viewBox="0 0 120 123" fill="none" xmlns="http://www.w3.org/2000/svg">
<path d="M112.5 36.5411V36.5391L85.758 34.3711L76.512 13.2591C76.512 13.2591 76.051 10.4851 70.504 4.78306C64.955 -0.91894 53.705 1.39306 53.705 1.39306C53.705 1.39306 29.819 5.86206 21.96 7.71006C14.1 9.56006 13.792 17.5731 13.792 17.5731L10.71 39.6091L10.07 44.0151C10.065 44.0411 10.062 44.0711 10.058 44.0971L10.04 44.2241H10.042C10.002 44.5361 9.97905 44.8531 9.97905 45.1751C9.97905 49.2791 13.306 52.6041 17.409 52.6041C21.512 52.6041 24.838 49.2791 24.838 45.1751C24.838 44.8571 24.817 44.5451 24.777 44.2381L29.511 22.6571L41.068 21.2711L39.279 27.1511L49.177 29.0701C50.797 29.3831 51.865 30.9661 51.552 32.5871L44.14 70.8301C43.863 72.2601 42.599 73.2601 41.192 73.2601C41.12 73.2601 41.046 73.2441 40.972 73.2391C40.244 73.3431 39.681 73.2041 39.681 73.2041L30.281 71.3551L27.199 88.4601L3.63905 108.823C1.93805 110.184 0.847046 112.276 0.847046 114.624C0.847046 118.728 4.17304 122.054 8.27604 122.054C10.311 122.054 12.154 121.236 13.496 119.909C13.496 119.909 41.221 97.8591 43.071 96.3181C44.921 94.7781 45.844 92.4651 45.844 92.4651C45.844 92.4651 50.385 78.5171 51.623 75.5911C52.471 73.5871 56.555 74.5121 56.555 74.5121L79.44 83.1431L87.055 112.205C87.137 112.835 87.297 113.439 87.528 114.009H87.53C88.628 116.737 91.3 118.663 94.419 118.663C98.523 118.663 101.849 115.336 101.849 111.233C101.849 110.634 101.777 110.054 101.642 109.497C100.8 104.532 97.038 82.4511 96.081 77.6711C95.003 72.2771 91.46 70.7371 91.46 70.7371C91.46 70.7371 70.193 59.1821 68.807 58.4101C67.42 57.6401 67.729 55.6361 67.729 55.6361L71.659 41.3051L74.432 47.1611C74.432 47.1611 76.051 50.4351 78.516 50.5521L111.873 51.3721C115.977 51.3721 119.303 48.0461 119.303 43.9411C119.303 40.0511 116.311 36.8601 112.5 36.5411V36.5411Z" fill="#3A3A3A"/>
</svg>
