<svg width="65" height="55" viewBox="0 0 65 55" fill="none" xmlns="http://www.w3.org/2000/svg">
<path d="M53.9708 54.644H53.9728C54.0458 54.65 54.1198 54.665 54.1928 54.665C55.5998 54.665 56.8638 53.665 57.1408 52.235L64.5528 13.992C64.8658 12.371 63.7978 10.789 62.1778 10.475L41.9638 6.558L40.6778 12.42L58.0908 15.794L51.8198 48.148L6.51579 39.369L12.7858 7.016L25.3278 9.447L26.1598 3.497L10.9818 0.555C10.7908 0.518 10.6008 0.5 10.4138 0.5C9.00679 0.5 7.74279 1.5 7.46579 2.929L0.0547894 41.173C-0.259211 42.793 0.808789 44.375 2.42979 44.689L53.6258 54.612C53.7398 54.634 53.8548 54.635 53.9708 54.644Z" fill="#F0C42E"/>
</svg>
