<svg width="43" height="34" viewBox="0 0 43 34" fill="none" xmlns="http://www.w3.org/2000/svg">
<path d="M18.0981 33.232C26.2191 33.232 33.0431 27.69 34.9981 20.183L40.465 20.997C40.572 21.013 40.6801 21.021 40.7851 21.021C41.8361 21.021 42.7561 20.251 42.9161 19.181C43.0921 18.003 42.2771 16.905 41.1001 16.73L35.5591 15.905C35.5611 15.859 35.5631 15.814 35.5631 15.767C35.5631 15.585 35.5571 15.405 35.5491 15.225C35.5491 15.225 35.0981 8.70703 34.4751 5.98803C33.8541 3.26903 31.9401 2.69203 31.9401 2.69203C22.1701 0.480028 12.1681 0.254028 9.56406 0.254028C6.96006 0.254028 6.40605 1.58603 6.40605 1.58603L3.25605 6.58203L3.24606 6.57903C3.17006 6.70003 3.10005 6.82403 3.02705 6.94703L3.00005 6.99003C1.49805 9.57003 0.633057 12.566 0.633057 15.767C0.633057 25.413 8.45305 33.232 18.0981 33.232V33.232Z" fill="#3A3A3A"/>
</svg>
